<svg width="1280" height="760" viewBox="0 0 1280 760" xmlns="http://www.w3.org/2000/svg" role="img" aria-label="Soulart Open preview cards">
  <defs>
    <linearGradient id="bg" x1="0" y1="0" x2="1" y2="1">
      <stop offset="0%" stop-color="#f0fdfa"/>
      <stop offset="100%" stop-color="#ecfeff"/>
    </linearGradient>
  </defs>

  <rect width="1280" height="760" fill="url(#bg)"/>

  <rect x="40" y="34" width="1200" height="88" rx="16" fill="#ffffff" stroke="#dbeafe"/>
  <circle cx="84" cy="78" r="18" fill="#0f766e"/>
  <text x="114" y="85" fill="#0f172a" font-size="28" font-family="Inter, Segoe UI, Arial" font-weight="700">Soulart Open · README Preview</text>

  <rect x="40" y="152" width="580" height="260" rx="18" fill="#ffffff" stroke="#d1fae5"/>
  <text x="72" y="200" fill="#0f172a" font-size="30" font-family="Inter, Segoe UI, Arial" font-weight="700">Landing Page</text>
  <text x="72" y="236" fill="#334155" font-size="20" font-family="Inter, Segoe UI, Arial">Public baseline with hero and scope cards</text>
  <rect x="72" y="266" width="168" height="40" rx="20" fill="#0f766e"/>
  <text x="156" y="292" text-anchor="middle" fill="#ffffff" font-size="18" font-family="Inter, Segoe UI, Arial" font-weight="700">Open Scope</text>

  <rect x="660" y="152" width="580" height="260" rx="18" fill="#ffffff" stroke="#d1fae5"/>
  <text x="692" y="200" fill="#0f172a" font-size="30" font-family="Inter, Segoe UI, Arial" font-weight="700">Public Pages</text>
  <text x="692" y="236" fill="#334155" font-size="20" font-family="Inter, Segoe UI, Arial">About / Privacy / Terms ready for extension</text>
  <rect x="692" y="266" width="200" height="40" rx="20" fill="#0e7490"/>
  <text x="792" y="292" text-anchor="middle" fill="#ffffff" font-size="18" font-family="Inter, Segoe UI, Arial" font-weight="700">Static Ready</text>

  <rect x="40" y="442" width="1200" height="280" rx="18" fill="#ffffff" stroke="#dbeafe"/>
  <text x="72" y="492" fill="#0f172a" font-size="30" font-family="Inter, Segoe UI, Arial" font-weight="700">What is excluded in OSS edition</text>

  <g fill="#334155" font-size="21" font-family="Inter, Segoe UI, Arial">
    <text x="72" y="542">• Full canvas engine and complex editor internals</text>
    <text x="72" y="578">• Full chat / agent orchestration and model routing runtime</text>
    <text x="72" y="614">• Admin backend, database schemas, Redis and cloud integrations</text>
    <text x="72" y="650">• Any production credentials, keys, or private infrastructure details</text>
  </g>
</svg>
